<?xml version="1.0" standalone="no"?>
<!DOCTYPE svg PUBLIC "-//W3C//DTD SVG 20010904//EN"
 "http://www.w3.org/TR/2001/REC-SVG-20010904/DTD/svg10.dtd">
<svg version="1.0" xmlns="http://www.w3.org/2000/svg"
 width="769.000000pt" height="768.000000pt" viewBox="0 0 769.000000 768.000000"
 preserveAspectRatio="xMidYMid meet">

<g transform="translate(0.000000,768.000000) scale(0.100000,-0.100000)"
fill="#000000" stroke="none">
<path d="M3253 7430 c-28 -11 -55 -63 -46 -87 4 -10 26 -41 50 -69 l43 -51
-62 -13 c-123 -24 -364 -102 -478 -155 -223 -104 -455 -252 -600 -383 -60 -53
-62 -55 -108 -49 -26 3 -124 24 -218 46 -94 23 -183 41 -198 41 -33 0 -76 -41
-76 -72 0 -33 44 -122 85 -172 19 -24 35 -47 35 -52 0 -5 -40 -28 -88 -51
-105 -50 -162 -95 -162 -128 0 -51 111 -135 181 -135 14 0 28 -3 32 -6 3 -3
-14 -32 -38 -65 -24 -32 -68 -107 -98 -167 -49 -94 -69 -140 -108 -241 -7 -16
-13 -20 -22 -14 -55 44 -339 42 -477 -2 -166 -53 -264 -112 -399 -240 -209
-198 -322 -547 -281 -871 31 -248 138 -453 337 -645 140 -135 292 -226 476
-285 48 -15 87 -31 87 -35 0 -4 -12 -38 -26 -75 -47 -124 -175 -535 -223 -719
-162 -606 -262 -1109 -317 -1600 -13 -121 -29 -244 -34 -274 -9 -51 -8 -56 17
-90 15 -20 50 -60 77 -89 59 -62 66 -58 66 43 0 90 32 405 65 643 58 420 149
876 253 1267 22 83 50 186 62 230 33 126 195 609 282 845 143 386 228 573 365
798 25 42 51 85 57 97 146 278 435 613 686 790 59 43 132 85 144 85 3 0 17
-17 31 -37 30 -45 33 -37 5 17 -11 21 -17 45 -14 53 3 8 32 29 64 46 86 46
167 39 192 -15 12 -25 10 -29 -24 -58 -20 -17 -69 -51 -109 -74 -306 -184
-676 -617 -778 -913 -40 -115 -48 -167 -27 -175 30 -11 65 25 113 118 55 107
188 310 271 412 82 103 241 258 367 359 111 89 296 207 324 207 9 0 25 -14 36
-30 11 -17 35 -39 53 -50 17 -11 32 -25 32 -32 -1 -7 -43 -43 -94 -80 -111
-80 -284 -228 -394 -337 -191 -189 -376 -503 -384 -652 -3 -45 0 -54 15 -57
28 -6 40 10 119 154 163 303 402 561 714 772 50 34 95 62 101 62 6 0 30 -21
53 -47 l41 -48 -31 48 c-43 66 -38 93 23 131 67 41 139 47 187 14 33 -22 35
-27 38 -88 3 -67 -16 -136 -45 -165 -8 -8 -32 -15 -54 -15 -59 0 -102 -22
-203 -104 -303 -246 -522 -499 -632 -731 -50 -106 -63 -157 -44 -180 19 -23
44 -3 101 83 175 261 336 448 509 592 l75 62 42 -49 c24 -26 43 -52 43 -57 0
-4 -44 -56 -97 -114 -54 -59 -115 -125 -136 -148 -84 -92 -139 -169 -278 -392
-35 -57 -71 -115 -79 -128 -8 -13 -46 -74 -85 -135 -152 -245 -360 -450 -528
-522 -64 -28 -83 -31 -173 -32 -95 0 -103 2 -143 29 -34 24 -51 48 -87 123
-25 51 -51 93 -57 93 -7 0 -28 -16 -47 -35 -19 -19 -37 -35 -42 -35 -4 0 -21
26 -37 59 -27 53 -36 81 -56 175 -3 15 -9 25 -13 22 -3 -4 -11 7 -17 25 l-11
31 -26 -63 c-15 -35 -45 -116 -68 -179 -23 -63 -57 -156 -76 -207 -18 -50 -42
-123 -53 -162 l-20 -71 27 18 c25 16 26 16 19 -1 -4 -11 -3 -16 3 -12 14 9 65
-21 89 -51 15 -20 21 -41 21 -81 0 -159 -150 -211 -192 -67 -11 34 -12 36 -16
14 -2 -14 -36 -160 -77 -325 -148 -602 -235 -1143 -265 -1643 -14 -229 -10
-261 40 -306 161 -145 455 -279 767 -351 110 -25 119 -25 517 -25 l404 0 6 28
c3 15 8 50 11 77 22 186 48 300 101 436 48 124 104 234 150 295 67 88 158 193
172 199 7 3 46 -19 85 -49 103 -77 156 -107 303 -175 l130 -60 125 26 c109 22
140 25 259 20 74 -3 172 -13 216 -22 72 -13 88 -14 136 -1 94 24 261 116 391
214 37 29 76 52 85 52 24 0 123 -111 198 -222 154 -228 223 -433 249 -740 l7
-78 404 0 405 0 139 35 c154 39 340 105 452 161 94 46 283 173 327 218 l33 34
-11 219 c-13 242 -32 435 -60 623 -59 383 -73 462 -91 535 -11 44 -26 114 -35
155 -8 41 -47 207 -87 369 -57 231 -74 290 -83 276 -25 -43 -58 -75 -79 -75
-51 0 -106 77 -106 150 0 39 29 108 52 128 24 19 64 5 98 -36 l30 -36 -9 29
c-15 48 -179 513 -211 595 -16 41 -44 110 -63 152 l-34 78 -7 -108 c-5 -89
-18 -154 -52 -260 -2 -9 -13 -7 -40 7 -50 27 -66 17 -109 -69 -73 -144 -199
-186 -380 -126 -239 81 -409 250 -668 664 -180 289 -314 464 -514 673 -46 47
-83 90 -83 94 0 10 83 114 92 115 13 0 121 -95 216 -191 94 -94 248 -289 361
-458 69 -101 97 -124 118 -95 17 23 17 24 -6 92 -39 115 -168 316 -303 473
-91 105 -357 350 -443 408 -48 32 -94 54 -131 62 -48 11 -60 18 -81 51 -87
131 15 271 155 212 37 -15 102 -70 102 -87 0 -4 -14 -29 -31 -53 -17 -25 -28
-48 -24 -52 4 -4 12 0 18 9 7 8 25 31 40 49 l29 33 31 -18 c107 -62 370 -277
475 -389 116 -124 265 -333 346 -485 47 -88 54 -96 84 -99 30 -3 32 -1 32 28
0 201 -285 603 -620 876 -173 141 -295 228 -379 272 -47 24 -92 49 -99 55 -14
11 -8 58 12 89 15 24 67 48 105 48 49 0 138 -38 166 -72 28 -33 30 -27 -32
-102 -45 -54 -41 -66 6 -23 83 75 82 75 158 29 87 -51 240 -168 370 -283 161
-142 345 -376 471 -600 88 -154 107 -179 138 -179 21 0 24 4 24 38 0 140 -223
512 -444 740 -102 106 -299 267 -408 333 -100 61 -118 77 -118 100 0 22 66 69
96 69 37 0 109 -30 148 -62 33 -27 37 -35 32 -62 -5 -29 -5 -30 9 -12 14 18
15 18 58 -7 151 -89 445 -360 559 -517 214 -293 466 -765 595 -1110 151 -407
300 -843 347 -1020 115 -427 203 -804 235 -1005 6 -38 25 -151 41 -250 47
-293 79 -575 87 -778 l5 -129 45 44 c24 23 60 64 80 91 32 43 34 50 24 79 -6
17 -11 56 -11 87 0 104 -23 277 -110 811 -41 253 -107 542 -230 1010 -33 126
-217 692 -244 751 -5 13 12 22 91 48 222 72 360 158 506 310 141 148 227 300
279 491 20 75 23 108 23 270 0 159 -3 196 -22 266 -73 266 -263 509 -494 633
-117 62 -225 92 -357 98 -110 6 -234 -7 -274 -29 -15 -7 -21 -1 -35 34 -37 96
-166 337 -212 398 l-49 65 60 12 c90 18 158 68 158 115 0 48 -137 147 -226
164 -19 3 -34 8 -34 11 0 3 19 26 41 51 89 101 122 197 82 238 -27 26 -132 12
-336 -46 l-178 -50 -90 80 c-350 309 -702 470 -1299 595 -69 15 -168 37 -220
50 -408 100 -643 135 -717 105z m407 -185 c80 -20 181 -44 225 -55 44 -11 177
-43 297 -70 393 -91 570 -152 795 -270 207 -110 299 -173 446 -308 38 -34 80
-65 93 -68 37 -10 161 12 269 47 53 16 101 28 108 26 17 -6 -75 -90 -137 -125
-49 -28 -83 -58 -75 -66 2 -2 60 -20 129 -40 160 -47 211 -66 205 -75 -8 -13
-126 -20 -197 -12 -38 4 -68 4 -68 0 0 -4 21 -31 46 -61 192 -222 370 -606
462 -998 37 -154 37 -156 36 -370 -1 -180 -4 -227 -21 -290 l-19 -75 -6 225
c-7 248 -19 335 -74 535 -90 324 -240 627 -429 865 -79 99 -82 103 -65 70 8
-14 13 -26 12 -27 -1 -2 1 -17 5 -34 4 -22 8 -27 14 -17 10 14 9 16 12 -57 2
-48 -14 -69 -45 -59 -21 6 -21 6 -5 -10 22 -22 21 -26 -3 -26 -13 0 -24 10
-30 25 -10 27 -16 30 -25 16 -3 -6 4 -19 17 -30 12 -12 19 -23 16 -27 -9 -8
-53 54 -53 74 0 12 -7 16 -24 14 -17 -1 -22 2 -18 12 4 9 1 13 -6 10 -7 -2
-26 10 -42 27 l-30 31 25 -6 c21 -6 22 -5 7 4 -9 6 -22 8 -27 5 -5 -3 -22 6
-37 21 -16 14 -22 23 -15 20 8 -5 12 1 12 18 0 19 -5 26 -20 26 -14 0 -20 7
-20 21 0 18 -5 20 -37 17 -31 -2 -38 1 -42 17 -5 28 -18 34 -63 27 -30 -4 -43
0 -58 14 -38 37 -47 43 -57 33 -7 -7 -12 -3 -16 10 -3 12 -1 21 5 21 5 0 6 5
3 10 -3 6 -17 7 -31 4 -18 -5 -24 -2 -24 10 0 9 -8 16 -20 16 -13 0 -20 7 -20
20 0 13 -7 20 -20 20 -13 0 -20 7 -20 20 0 13 -7 20 -20 20 -13 0 -20 7 -20
20 0 18 -7 20 -58 20 -46 0 -60 4 -72 20 -12 17 -26 20 -82 20 -39 0 -68 4
-68 10 0 6 -11 10 -25 10 -14 0 -25 -4 -25 -10 0 -5 -9 -10 -20 -10 -11 0 -20
-4 -20 -9 0 -10 -55 -18 -187 -27 -85 -6 -92 -8 -95 -28 -3 -20 -6 -22 -35
-14 -19 5 -33 15 -33 23 0 13 -30 15 -199 15 -190 0 -199 -1 -204 -20 -5 -18
-14 -20 -101 -20 -89 0 -96 1 -96 20 0 19 -7 20 -100 20 -83 0 -100 3 -100 15
0 14 -16 15 -120 9 -88 -5 -120 -4 -120 4 0 8 -26 12 -80 12 -47 0 -80 -4 -80
-10 0 -5 -7 -10 -15 -10 -8 0 -15 -5 -15 -11 0 -5 -5 -7 -10 -4 -17 10 -120
-17 -120 -32 0 -7 -9 -13 -20 -13 -17 0 -20 -7 -20 -40 0 -35 -3 -40 -22 -41
-22 -1 -22 -1 2 -9 21 -7 17 -8 -20 -9 -25 -1 -61 -6 -80 -11 -19 -6 -54 -11
-77 -11 -26 -1 -43 -5 -43 -12 0 -7 -4 -6 -10 3 -7 12 -12 12 -22 2 -9 -9 -9
-12 3 -13 7 0 1 -7 -16 -14 -16 -7 -36 -10 -44 -7 -10 4 -12 1 -6 -8 6 -10 4
-12 -8 -7 -10 4 -17 1 -17 -6 0 -7 -17 -19 -37 -26 -21 -8 -44 -20 -51 -28 -8
-8 -21 -12 -28 -9 -8 3 -13 1 -11 -3 1 -5 -43 -41 -98 -81 -55 -40 -103 -78
-107 -84 -4 -6 -8 -7 -8 -1 0 5 -7 -1 -16 -13 -9 -14 -22 -21 -31 -18 -8 3
-11 1 -8 -5 8 -13 -13 -39 -28 -35 -7 1 -9 1 -5 -1 13 -8 -4 -32 -18 -26 -9 3
-12 0 -9 -9 3 -8 -1 -21 -11 -28 -14 -12 -16 -12 -14 5 5 48 0 65 -20 65 -13
0 -20 7 -20 20 0 13 -7 20 -19 20 -22 0 -34 35 -17 49 7 6 27 32 45 58 43 62
4 21 -65 -67 -198 -255 -317 -516 -408 -900 -61 -255 -93 -561 -75 -722 10
-82 3 -120 -13 -77 -61 162 -55 524 14 849 42 203 100 380 186 568 89 193 196
361 281 438 19 18 32 36 28 40 -4 4 -62 11 -129 16 -67 4 -126 12 -132 18 -11
11 -9 12 89 41 164 49 201 59 222 59 46 0 31 21 -54 76 -48 31 -105 70 -125
86 -41 32 -52 56 -17 37 57 -30 286 -89 348 -89 11 0 64 38 118 85 148 129
312 236 506 330 274 134 392 165 767 200 96 9 191 18 210 21 31 5 33 7 17 19
-17 12 -130 50 -224 74 -52 14 -80 38 -89 75 l-7 29 49 -7 c27 -3 114 -22 194
-41z m1293 -912 c-7 -2 -21 -2 -30 0 -10 3 -4 5 12 5 17 0 24 -2 18 -5z m14
-19 c-3 -3 -12 -4 -19 -1 -8 3 -5 6 6 6 11 1 17 -2 13 -5z m73 -14 c11 -8 7
-9 -15 -4 -37 8 -45 14 -19 14 10 0 26 -5 34 -10z m45 -10 c3 -5 -1 -10 -9
-10 -9 0 -16 5 -16 10 0 6 4 10 9 10 6 0 13 -4 16 -10z m90 -48 c-3 -3 -11 0
-18 7 -9 10 -8 11 6 5 10 -3 15 -9 12 -12z m95 -42 c0 -5 -2 -10 -4 -10 -3 0
-8 5 -11 10 -3 6 -1 10 4 10 6 0 11 -4 11 -10z m-325 -64 c177 -47 340 -141
505 -290 95 -86 205 -227 256 -327 72 -143 144 -397 144 -509 l0 -43 -23 35
c-59 86 -206 255 -304 348 -114 108 -347 282 -448 333 -64 32 -144 57 -186 57
-53 0 -131 -31 -174 -71 l-42 -39 -48 26 c-57 33 -161 43 -230 24 -97 -27
-173 -107 -184 -192 -6 -52 -6 -53 -66 -83 -37 -19 -72 -47 -92 -73 -60 -79
-68 -221 -18 -331 l26 -55 -30 -55 c-42 -79 -54 -160 -41 -266 13 -103 37
-173 89 -251 36 -56 113 -135 173 -179 23 -16 27 -26 26 -62 0 -24 1 -45 3
-46 128 -92 277 -226 299 -270 9 -17 19 -26 28 -22 12 4 13 3 2 -10 -7 -8 -10
-22 -6 -30 4 -11 -4 -8 -27 8 -56 42 -63 42 -29 2 80 -96 101 -124 145 -198
26 -43 47 -79 47 -82 0 -2 23 -43 51 -92 146 -250 240 -443 260 -530 25 -114
12 -186 -56 -300 -19 -33 -21 -43 -10 -43 11 0 15 -11 15 -41 0 -39 2 -41 25
-37 17 4 25 1 25 -8 0 -20 37 -17 49 3 5 10 12 15 15 12 13 -12 -110 -172
-197 -256 -196 -189 -451 -322 -747 -388 -99 -22 -387 -31 -506 -16 -108 14
-297 56 -379 83 -109 36 -337 155 -400 209 -145 123 -238 227 -298 330 -23 38
-24 46 -11 46 9 0 19 -9 22 -19 5 -21 27 -24 36 -5 3 6 3 2 0 -11 -4 -17 3
-31 30 -58 20 -20 40 -33 46 -29 5 3 10 0 10 -8 0 -8 24 -34 53 -58 28 -24 84
-73 122 -109 39 -36 88 -77 110 -92 51 -33 145 -78 162 -78 7 0 13 -4 13 -9 0
-12 47 -28 100 -35 25 -3 39 -3 33 0 -7 3 -13 21 -13 40 0 31 3 34 30 34 34 0
40 15 10 25 -27 9 -16 25 13 19 12 -3 42 -9 66 -13 24 -5 46 -13 50 -17 3 -5
35 -10 71 -11 63 -2 62 -1 -60 27 -222 50 -440 152 -567 265 -32 27 -54 45
-50 38 9 -14 -8 -20 -43 -15 -20 3 -30 13 -39 38 -7 19 -19 34 -27 34 -8 0
-14 8 -14 18 0 10 -6 24 -12 31 -10 11 -10 13 0 7 6 -4 12 -2 12 3 0 6 -4 11
-10 11 -5 0 -10 7 -10 16 0 9 5 12 11 8 7 -4 -8 22 -32 57 -77 114 -93 193
-63 319 17 76 177 406 257 530 30 47 66 105 80 130 15 25 47 73 72 108 26 34
44 62 41 62 -2 0 -26 -30 -53 -66 -48 -66 -67 -68 -45 -5 7 19 7 32 0 39 -6 6
-6 12 3 17 8 6 10 4 4 -6 -6 -11 -5 -11 5 -2 7 6 14 24 16 38 1 15 9 34 16 43
8 10 20 29 27 44 8 15 17 26 21 23 3 -2 23 12 45 32 28 25 45 33 62 30 17 -3
23 -1 19 9 -3 8 -2 13 2 11 4 -1 21 13 37 30 30 33 174 118 183 108 3 -3 -5
-54 -18 -115 -17 -83 -22 -127 -17 -183 6 -87 22 -124 71 -161 l35 -26 -15 42
c-11 30 -14 62 -10 106 7 77 25 119 24 54 -1 -54 36 -109 93 -142 35 -19 50
-22 100 -16 48 5 59 3 59 -9 0 -28 38 -55 79 -55 65 0 101 11 101 30 0 14 14
20 65 30 107 20 185 85 185 155 0 21 27 48 34 36 4 -5 2 -21 -4 -36 -13 -35
-13 -125 0 -125 21 0 60 56 76 109 49 162 -44 364 -203 444 -94 47 -285 65
-403 37 -53 -12 -148 -56 -161 -73 -8 -11 -18 4 -29 43 -7 23 -4 33 14 52 46
47 106 135 136 200 37 79 53 172 48 278 -2 65 -9 88 -41 151 l-38 75 25 55
c79 173 37 322 -114 399 -30 15 -39 27 -45 57 -25 137 -136 227 -280 226 -69
0 -160 -28 -176 -55 -5 -7 -23 2 -53 26 -83 69 -203 85 -307 42 -77 -31 -355
-227 -460 -323 -117 -107 -260 -261 -322 -347 l-52 -71 -3 43 c-4 58 43 268
85 377 84 220 218 401 407 547 218 169 412 236 656 225 312 -13 546 -147 822
-466 46 -54 50 -52 156 72 153 179 370 322 574 378 105 29 306 26 423 -5z
m438 1 c-4 -18 -3 -19 6 -7 9 13 11 13 11 -2 0 -10 -3 -18 -7 -18 -13 1 -47
30 -35 30 6 0 9 7 6 15 -4 11 -2 13 9 9 9 -3 13 -14 10 -27z m372 -131 c2 -14
-1 -26 -6 -26 -5 0 -9 6 -10 13 0 6 -2 22 -3 35 -2 15 1 19 7 13 5 -5 11 -21
12 -35z m-3836 -47 c1 -4 -12 -9 -29 -11 -26 -4 -28 -2 -17 11 30 38 32 39 39
22 4 -9 7 -19 7 -22z m3769 -109 c7 -11 11 -20 9 -20 -2 0 -12 9 -22 20 -10
11 -14 20 -9 20 5 0 15 -9 22 -20z m-2421 -320 c37 -22 66 -71 61 -103 -2 -15
-28 -35 -88 -69 -47 -26 -87 -47 -90 -48 -9 0 -89 127 -95 152 -5 20 3 27 52
55 67 37 114 41 160 13z m-1974 -60 c21 -4 41 -11 45 -14 3 -4 0 -26 -7 -49
-6 -23 -21 -78 -32 -122 -11 -44 -24 -96 -29 -115 l-9 -35 -108 0 c-124 0
-183 -6 -183 -17 0 -4 -12 -8 -26 -8 -68 0 -226 -136 -286 -247 -57 -104 -74
-264 -43 -388 44 -175 175 -344 318 -410 83 -38 174 -65 223 -65 25 0 41 -10
74 -46 l42 -46 -23 -24 c-20 -22 -31 -24 -103 -24 -107 0 -131 8 -261 84 -60
35 -112 62 -115 59 -3 -3 3 -10 13 -18 14 -10 15 -14 4 -24 -8 -6 -17 -8 -20
-4 -4 3 -7 -1 -7 -10 0 -9 9 -21 20 -27 11 -6 20 -18 19 -28 0 -10 -3 -12 -6
-4 -5 14 -23 16 -23 3 0 -5 20 -21 44 -35 25 -15 48 -31 51 -37 4 -6 -20 7
-53 27 -34 21 -58 42 -56 46 3 4 -1 5 -8 3 -19 -8 -186 161 -241 243 -54 80
-109 203 -127 282 -6 30 -14 114 -17 185 -5 141 12 261 56 377 53 138 207 319
338 397 159 94 367 130 536 91z m5417 -5 c150 -36 328 -150 426 -273 54 -69
126 -213 150 -302 23 -83 26 -341 5 -445 -16 -84 -59 -196 -107 -283 -46 -81
-204 -248 -245 -257 -16 -4 -27 -10 -24 -15 3 -4 -2 -13 -10 -20 -13 -11 -14
-10 -9 5 5 13 4 16 -4 11 -7 -4 -12 -2 -12 5 0 7 -11 10 -30 7 -16 -3 -30 -1
-30 4 0 4 -14 8 -32 8 -30 0 -31 1 -12 15 27 21 10 18 -35 -5 -60 -30 -180
-60 -242 -60 -43 0 -60 5 -74 20 -16 18 -17 23 -5 45 25 48 79 78 149 87 91
10 234 83 317 160 172 161 240 398 170 594 -61 173 -193 301 -369 356 -47 15
-86 19 -161 17 l-100 -3 -27 110 c-14 60 -34 131 -44 157 -10 28 -14 52 -9 57
32 31 243 34 364 5z m-3236 -605 c14 -5 35 -24 47 -42 17 -27 19 -45 16 -98
-2 -36 -12 -81 -21 -100 l-16 -35 3 45 c2 25 7 54 11 65 5 14 1 12 -14 -8 -29
-37 -100 -77 -136 -77 -32 0 -54 23 -87 87 -26 50 -21 77 20 113 62 55 121 72
177 50z m868 -31 c90 -58 96 -90 32 -173 -29 -38 -40 -46 -57 -40 -42 12 -83
34 -110 59 -26 25 -40 22 -15 -3 9 -9 6 -11 -10 -7 -18 3 -22 -1 -23 -23 -2
-43 -18 44 -18 102 -1 44 3 52 39 88 36 36 44 40 76 35 20 -3 58 -20 86 -38z
m2511 -223 c18 -7 46 -28 61 -47 25 -30 28 -39 24 -90 -7 -92 -52 -171 -157
-272 -85 -82 -141 -120 -204 -138 -34 -9 -34 -10 7 87 48 115 61 181 60 305
l-1 116 31 17 c68 36 128 44 179 22z m-5855 -23 c27 -20 27 -22 24 -124 -3
-125 18 -222 74 -329 20 -39 34 -74 30 -77 -9 -9 -90 25 -134 57 -101 73 -172
152 -213 236 -69 143 -64 195 25 239 63 33 149 32 194 -2z m3186 1 c3 -8 2
-12 -4 -9 -6 3 -10 10 -10 16 0 14 7 11 14 -7z m-827 0 c-3 -3 -12 -4 -19 -1
-8 3 -5 6 6 6 11 1 17 -2 13 -5z m958 -135 c22 -20 65 -59 95 -88 39 -37 28
-30 -35 22 -49 41 -106 92 -125 113 -31 34 -31 36 -5 14 16 -14 48 -41 70 -61z
m-395 -339 c81 -13 134 -33 179 -70 40 -31 96 -119 106 -165 l7 -30 -20 30
c-23 36 -99 108 -133 125 l-24 13 24 -27 c14 -14 20 -26 14 -26 -6 0 -13 -9
-16 -20 -3 -11 -16 -24 -30 -29 -14 -5 -43 -27 -66 -49 -22 -21 -41 -33 -41
-25 0 7 6 14 13 14 25 2 -69 20 -102 20 -19 -1 -44 6 -57 14 -13 8 -33 15 -46
14 -29 -1 -34 1 -123 34 -45 17 -52 17 -71 -4 -17 -19 -44 -26 -44 -11 0 4 10
23 21 42 49 82 108 122 213 145 76 17 114 18 196 5z m731 -42 c8 -15 8 -18 0
-14 -6 4 -16 16 -22 28 -8 15 -8 18 0 14 6 -4 16 -16 22 -28z m60 -82 c11 -39
6 -43 -12 -8 -8 15 -18 31 -24 35 -6 5 -2 7 9 5 12 -2 23 -15 27 -32z m80
-130 c5 3 9 -4 9 -15 0 -12 4 -21 9 -21 5 0 14 -13 20 -30 5 -16 8 -30 6 -30
-5 0 -65 100 -64 108 0 4 3 1 6 -6 2 -6 9 -10 14 -6z m104 -183 c4 -13 11 -20
16 -17 5 3 9 3 9 0 0 -3 -4 -7 -10 -11 -12 -8 -49 66 -42 85 4 11 8 8 13 -10
3 -14 9 -35 14 -47z m-1923 -90 c14 -17 -36 -83 -63 -83 -25 0 -25 0 13 79 27
56 33 62 36 41 2 -14 9 -31 14 -37z m-1555 -35 c-3 -8 -6 -5 -6 6 -1 11 2 17
5 13 3 -3 4 -12 1 -19z m1488 -74 c-11 -8 -26 -22 -32 -31 -12 -15 -13 -15
-13 -1 0 22 27 48 48 48 15 -1 14 -3 -3 -16z m-102 -164 c-29 -57 -53 -82 -53
-57 0 16 32 79 52 104 24 30 25 -2 1 -47z m-1139 -43 c46 -62 27 -241 -31
-287 -36 -28 -57 -25 -87 11 -23 27 -26 39 -25 102 1 106 17 157 58 185 42 27
57 26 85 -11z m4474 -21 c53 -60 53 -194 1 -260 -22 -27 -48 -33 -79 -16 -27
14 -40 42 -50 107 -9 52 -3 179 8 169 2 -3 13 4 25 15 31 28 61 24 95 -15z
m-3608 -691 c0 -5 -5 -3 -10 5 -5 8 -10 20 -10 25 0 6 5 3 10 -5 5 -8 10 -19
10 -25z m30 -70 c0 -8 -2 -15 -4 -15 -2 0 -6 7 -10 15 -3 8 -1 15 4 15 6 0 10
-7 10 -15z m2567 -17 c-3 -8 -6 -5 -6 6 -1 11 2 17 5 13 3 -3 4 -12 1 -19z
m-2618 -278 c33 -19 61 -38 61 -41 0 -4 -30 -14 -67 -24 -154 -38 -277 -105
-397 -216 -42 -39 -67 -56 -63 -44 3 11 17 72 32 135 31 132 74 282 111 388
l26 73 118 -118 c73 -73 142 -132 179 -153z m2979 185 c60 -171 132 -446 132
-505 0 -14 -17 -2 -62 41 -35 33 -94 81 -133 107 -70 47 -209 106 -277 118
-21 4 -38 9 -37 13 0 3 39 34 88 69 48 34 125 101 171 147 46 47 87 81 91 77
3 -4 15 -34 27 -67z m-2768 -5 c0 -5 -4 -10 -10 -10 -5 0 -10 5 -10 10 0 6 5
10 10 10 6 0 10 -4 10 -10z m180 -64 c0 -6 -7 -3 -14 6 -7 10 -17 14 -21 10
-5 -4 -5 -1 -1 6 6 10 11 10 22 1 8 -6 14 -17 14 -23z m57 -44 c17 -12 20 -21
13 -32 -8 -13 -10 -13 -10 1 0 9 -10 24 -22 32 -13 9 -18 16 -13 16 6 0 20 -7
32 -17z m48 -42 c3 -6 -1 -7 -9 -4 -18 7 -21 14 -7 14 6 0 13 -4 16 -10z m49
-25 c11 -8 16 -15 10 -15 -5 0 -18 7 -28 15 -11 8 -16 15 -10 15 5 0 18 -7 28
-15z m80 -44 c4 -5 -3 -7 -14 -4 -23 6 -26 13 -6 13 8 0 17 -4 20 -9z m171
-81 c-3 -5 -12 -10 -18 -10 -7 0 -6 4 3 10 19 12 23 12 15 0z m-548 -114 c15
-13 25 -27 22 -31 -4 -3 -59 -19 -122 -35 -122 -30 -205 -68 -272 -125 -33
-28 -36 -34 -18 -32 12 0 20 4 17 8 -8 14 16 20 33 10 17 -10 17 -10 1 -11
-10 0 -18 -7 -18 -15 0 -8 -4 -15 -10 -15 -5 0 -10 -8 -9 -17 0 -11 3 -13 6
-5 2 6 11 12 19 12 17 0 19 -29 2 -32 -7 0 -17 -2 -23 -3 -5 -2 -16 -3 -22 -4
-7 0 -13 -8 -13 -16 0 -20 -68 -21 -76 0 -4 10 -17 1 -46 -32 -22 -26 -45 -57
-51 -70 -5 -13 -14 -23 -19 -23 -5 0 -6 -12 -3 -27 4 -19 3 -22 -3 -10 -7 16
-13 11 -39 -30 -47 -72 -103 -192 -110 -236 -7 -49 -23 -58 -23 -14 0 62 29
314 40 341 18 48 92 150 163 223 140 145 282 209 469 212 68 1 80 -2 105 -23z
m2378 9 c39 -8 108 -33 155 -56 68 -34 102 -60 175 -133 104 -104 169 -198
190 -271 7 -27 16 -104 20 -170 l6 -120 -47 109 c-25 61 -57 124 -70 141 -13
18 -24 35 -24 40 0 16 -101 133 -163 189 -121 109 -231 166 -377 196 -30 6
-63 17 -73 25 -18 13 -18 15 -2 39 16 23 24 26 79 26 33 0 93 -7 131 -15z m93
-296 c-11 -7 -11 -9 0 -9 8 0 -13 -26 -45 -59 -32 -32 -60 -57 -62 -55 -2 2
18 27 43 56 26 29 52 68 59 87 11 31 12 32 15 11 2 -12 -2 -27 -10 -31z
m-2698 -89 c14 -13 32 -40 27 -40 -14 0 -79 69 -74 77 4 6 -4 8 -18 5 -19 -3
-25 0 -25 12 0 10 5 14 10 11 6 -3 10 2 10 11 0 12 12 2 32 -27 18 -24 35 -46
38 -49z m-257 40 c3 -11 1 -20 -4 -20 -5 0 -9 9 -9 20 0 11 2 20 4 20 2 0 6
-9 9 -20z m-28 -40 c3 -6 -1 -7 -9 -4 -9 3 -16 2 -16 -4 0 -5 -8 -13 -17 -16
-15 -6 -15 -4 2 14 20 22 31 25 40 10z m2625 -309 c-5 -11 -10 -30 -10 -42 0
-22 0 -22 -20 -4 l-21 19 28 22 c34 29 36 29 23 5z m-2010 -25 c0 -3 -4 -8
-10 -11 -5 -3 -10 -1 -10 4 0 6 5 11 10 11 6 0 10 -2 10 -4z m-846 -486 c-14
-24 -14 -23 -12 25 2 69 11 88 19 40 5 -27 2 -48 -7 -65z"/>
<path d="M3188 6903 c7 -3 16 -2 19 1 4 3 -2 6 -13 5 -11 0 -14 -3 -6 -6z"/>
<path d="M3078 6873 c7 -3 16 -2 19 1 4 3 -2 6 -13 5 -11 0 -14 -3 -6 -6z"/>
<path d="M2825 6780 c-59 -28 -60 -29 -61 -71 0 -24 -5 -44 -12 -47 -20 -6
-14 -67 9 -88 l21 -19 -18 31 c-16 27 -16 35 -4 64 7 18 24 44 36 57 20 21 31
24 69 21 43 -3 45 -2 26 11 -24 16 -28 51 -6 51 8 0 15 5 15 10 0 15 -9 12
-75 -20z"/>
<path d="M4997 6689 c7 -7 15 -10 18 -7 3 3 -2 9 -12 12 -14 6 -15 5 -6 -5z"/>
<path d="M4725 6631 c-3 -5 -1 -12 5 -16 5 -3 10 1 10 9 0 18 -6 21 -15 7z"/>
<path d="M4730 6590 c0 -5 5 -10 11 -10 5 0 7 5 4 10 -3 6 -8 10 -11 10 -2 0
-4 -4 -4 -10z"/>
<path d="M4800 6550 c0 -5 5 -10 11 -10 5 0 7 5 4 10 -3 6 -8 10 -11 10 -2 0
-4 -4 -4 -10z"/>
<path d="M3041 6524 c0 -11 3 -14 6 -6 3 7 2 16 -1 19 -3 4 -6 -2 -5 -13z"/>
<path d="M3601 6484 c0 -11 3 -14 6 -6 3 7 2 16 -1 19 -3 4 -6 -2 -5 -13z"/>
<path d="M5360 6442 c0 -12 19 -26 26 -19 2 2 -2 10 -11 17 -9 8 -15 8 -15 2z"/>
<path d="M5048 6413 c6 -2 18 -2 25 0 6 3 1 5 -13 5 -14 0 -19 -2 -12 -5z"/>
<path d="M5511 6308 c2 -2 31 -28 64 -58 l60 -55 -55 58 c-30 31 -59 57 -64
57 -5 0 -7 -1 -5 -2z"/>
<path d="M2830 6033 c-52 -19 -69 -97 -32 -143 16 -20 24 -22 64 -16 69 10
112 43 116 88 2 29 -2 40 -24 57 -26 20 -87 27 -124 14z"/>
<path d="M4741 6022 c-28 -22 -31 -75 -6 -102 21 -24 81 -43 115 -38 27 3 45
32 55 91 7 36 6 38 -29 52 -48 20 -109 19 -135 -3z"/>
<path d="M4950 5941 l0 -60 91 -60 c122 -82 179 -83 179 -4 0 27 -10 44 -47
81 -56 55 -142 102 -190 102 l-33 0 0 -59z"/>
<path d="M2583 5965 c-70 -35 -123 -95 -123 -138 0 -34 30 -77 54 -77 7 0 54
28 105 62 l92 62 -3 55 -3 56 -35 3 c-22 2 -54 -7 -87 -23z"/>
<path d="M3640 3124 c-343 -55 -720 -291 -720 -452 0 -33 31 -78 60 -87 34
-11 86 21 130 79 83 110 254 211 445 262 91 25 116 28 285 28 175 1 190 -1
274 -27 221 -69 351 -144 440 -256 44 -55 63 -71 90 -76 84 -16 133 64 90 148
-74 143 -363 316 -614 368 -131 27 -356 33 -480 13z"/>
<path d="M3803 2763 c31 -2 83 -2 115 0 31 2 5 3 -58 3 -63 0 -89 -1 -57 -3z"/>
<path d="M3678 2753 c7 -3 16 -2 19 1 4 3 -2 6 -13 5 -11 0 -14 -3 -6 -6z"/>
<path d="M3988 2753 c6 -2 18 -2 25 0 6 3 1 5 -13 5 -14 0 -19 -2 -12 -5z"/>
<path d="M4695 2270 c-3 -6 1 -7 9 -4 18 7 21 14 7 14 -6 0 -13 -4 -16 -10z"/>
<path d="M4595 2208 c-38 -22 -100 -53 -136 -68 -36 -15 -81 -35 -100 -43 -81
-38 -291 -75 -479 -87 l-125 -7 98 -1 c70 -2 97 -5 97 -14 0 -10 2 -10 8 -1 4
7 37 17 72 22 112 17 234 39 265 49 17 5 36 7 44 4 8 -3 11 0 7 7 -4 7 0 11
11 11 11 0 23 4 29 10 5 5 18 11 29 14 41 9 65 19 65 27 0 5 9 9 19 9 11 0 23
4 26 10 3 5 30 21 58 35 53 25 110 65 92 64 -5 -1 -41 -19 -80 -41z"/>
<path d="M3648 2013 c6 -2 18 -2 25 0 6 3 1 5 -13 5 -14 0 -19 -2 -12 -5z"/>
<path d="M3710 2000 c0 -5 7 -7 15 -4 8 4 15 8 15 10 0 2 -7 4 -15 4 -8 0 -15
-4 -15 -10z"/>
<path d="M2330 1712 c0 -5 7 -13 16 -16 10 -4 14 -1 12 6 -5 15 -28 23 -28 10z"/>
<path d="M2292 1688 c-14 -14 -16 -28 -3 -28 9 0 24 30 18 36 -2 2 -9 -2 -15
-8z"/>
<path d="M4410 5056 c0 -2 7 -7 16 -10 8 -3 12 -2 9 4 -6 10 -25 14 -25 6z"/>
<path d="M1467 3746 c-5 -15 -6 -31 -3 -34 8 -8 18 25 14 45 -3 13 -6 10 -11
-11z"/>
<path d="M1170 2909 c0 -5 5 -7 10 -4 6 3 10 8 10 11 0 2 -4 4 -10 4 -5 0 -10
-5 -10 -11z"/>
</g>
</svg>
